<svg viewBox="0 0 910.75 257.17" width="241" height="68" preserveAspectRatio="xMidYMid meet" xmlns="http://www.w3.org/2000/svg" xmlns:xlink="http://www.w3.org/1999/xlink"><clipPath id="a" transform="translate(-2.77 -4.1)"><path d="m-128.63-128.1h1173.54v521.58h-1173.54z"/></clipPath><g clip-path="url(#a)"><path d="m913.52 186.58v-32h-3.42v25.61l-17-25.61h-3.24v32h3.42v-25.7l17 25.7zm-34.15 0v-3.06h-16.48v-11.52h14v-3.1h-14v-11.3h16.47v-3.06h-19.89v32h19.89zm-30.42-8.82a8 8 0 0 0 -2.7-6.34c-1.35-1.17-2.83-1.8-5.85-2.25l-3.51-.54a9.22 9.22 0 0 1 -4.32-1.75 4.63 4.63 0 0 1 -1.44-3.69c0-3.56 2.48-5.94 6.75-5.94a10.1 10.1 0 0 1 7.47 2.75l2.21-2.21a12.86 12.86 0 0 0 -9.54-3.51c-6.34 0-10.26 3.6-10.26 9a7.57 7.57 0 0 0 2.43 6 11.65 11.65 0 0 0  5.89 2.43l3.73.59c2.34.36 3.15.63 4.18 1.53a5.16 5.16 0 0 1 1.53 4c0 3.74-2.88 5.94-7.56 5.94a11 11 0 0 1 -8.73-3.51l-2.34 2.34c3 3 6.16 4.23 11 4.23 6.66 0 11.07-3.47 11.07-9.09m-26.86 8.82v-3.06h-16.4v-29h-3.42v32h19.8zm-30.28 0v-3.06h-16.5v-11.5h14v-3.1h-14v-11.3h16.47v-3.06h-19.89v32h19.89zm-34.45-23.06c0 3.91-2.66 5.85-6.39 5.85h-8.55v-11.75h8.57c3.73 0 6.39 2 6.39 5.9m4 23.09l-7.58-14.59a8.31 8.31 0 0 0 7-8.59c0-5.53-3.91-8.91-9.49-8.91h-12.32v32h3.42v-14.14h7.69l7.29 14.22h4zm-30.78-32h-3.69l-7.47 15.35-7.56-15.34h-3.69l9.54 18.81v13.23h3.42v-13.29zm-28.17 3.06v-3.06h-22v3.06h9.27v29h3.42v-29h9.27zm-27 20.16a8 8 0 0 0 -2.7-6.34c-1.35-1.17-2.83-1.8-5.85-2.25l-3.51-.54a9.22 9.22 0 0 1 -4.32-1.75 4.63 4.63 0 0 1 -1.44-3.69c0-3.56 2.47-5.94 6.75-5.94a10.1 10.1 0 0 1 7.47 2.75l2.2-2.21a12.86 12.86 0 0 0 -9.54-3.51c-6.35 0-10.26 3.6-10.26 9a7.57 7.57 0 0 0 2.43 6 11.65 11.65 0 0 0  5.9 2.43l3.73.59c2.34.36 3.15.63 4.18 1.53a5.16 5.16 0 0 1 1.53 4c0 3.74-2.88 5.94-7.56 5.94a11 11 0 0 1 -8.73-3.51l-2.34 2.34c3 3 6.16 4.23 11 4.23 6.66 0 11.07-3.47 11.07-9.09m-29.11 0a8 8 0 0 0 -2.7-6.34c-1.35-1.17-2.84-1.8-5.85-2.25l-3.51-.54a9.22 9.22 0 0 1 -4.32-1.75 4.63 4.63 0 0 1 -1.44-3.69c0-3.56 2.47-5.94 6.75-5.94a10.09 10.09 0 0 1 7.53 2.72l2.21-2.21a12.86 12.86 0 0 0 -9.54-3.51c-6.35 0-10.26 3.6-10.26 9a7.57 7.57 0 0 0 2.43 6 11.65 11.65 0 0 0  5.89 2.43l3.73.59c2.34.36 3.15.63 4.18 1.53a5.16 5.16 0 0 1 1.53 4c0 3.74-2.88 5.94-7.56 5.94a11 11 0 0 1 -8.73-3.51l-2.34 2.34c3 3 6.17 4.23 11 4.23 6.66 0 11.07-3.47 11.07-9.09m-30.64-2.88v-5.06h-11.31v3h7.87v2.43a8.4 8.4 0 0 1 -1.8 5.8 7.81 7.81 0 0 1 -6.07 2.75 7.71 7.71 0 0 1 -5.54-2.25c-2-2.07-2.25-4.28-2.25-11s .23-8.87 2.25-10.94a7.75 7.75 0 0 1 5.54-2.29c4 0 6.88 2.47 7.78 6.52h3.42c-.94-5.62-5.08-9.58-11.2-9.58a11.34 11.34 0 0 0 -8.19 3.33c-3 3-3 6.16-3 13s0 9.94 3 13a11.74 11.74 0 0 0 16.74-.36c2-2.12 2.74-4.59 2.74-8.28m-33.93 11.7v-32h-3.42v25.61l-17-25.61h-3.24v32h3.42v-25.7l17 25.7zm-36.31-32h-3.41v32h3.42v-32zm-16.06 32v-32h-3.45v25.61l-17-25.61h-3.24v32h3.42v-25.7l17 25.7h3.24zm-38.52-16.43c0 3.92.09 8.69-2.12 11a8.34 8.34 0 0 1 -6.3 2.34h-7v-25.94h7a8.34 8.34 0 0 1 6.3 2.34c2.2 2.3 2.12 6.34 2.12 10.26m3.42 0c0-4.45.18-9.36-3.15-12.69a11.2 11.2 0 0 0 -8.1-3h-11v32h11a11.2 11.2 0 0 0 8.1-3c3.33-3.33 3.15-9 3.15-13.41m-31.59 16.38v-3.06h-16.38v-29h-3.38v32h19.8zm-32.44-32h-3.42v32h3.42zm-18.32 23.15c0 3.6-2.48 5.9-6.43 5.9h-8.73v-11.75h8.73c4 0 6.43 2.25 6.43 5.85m-.5-14.49c0 3.83-2.75 5.58-6.3 5.58h-8.37v-11.12h8.37c3.55 0 6.3 1.71 6.3 5.53m3.91 14.58a7.75 7.75 0 0 0 -5.22-7.6 7.34 7.34 0 0 0  4.72-7c0-5.35-3.87-8.55-9.45-8.55h-12v32h12.47c5.67 0 9.54-3.06 9.54-8.87m-31.37-20.09v-3.06h-22v3.06h9.27v29h3.42v-29h9.27zm-30.87 18.4v-21.46h-3.42v21.2c0 4.86-3.11 8.05-7.79 8.05s-7.74-3.19-7.74-8.05v-21.2h-3.42v21.46c0 6.39 4.68 10.85 11.16 10.85s11.21-4.45 11.21-10.84" fill="#1d1d1b" transform="translate(-2.77 -4.1)"/><path d="m739.42 111.76a8 8 0 0 0 -2.7-6.34c-1.35-1.17-2.83-1.8-5.85-2.25l-3.51-.54a9.22 9.22 0 0 1 -4.32-1.75 4.63 4.63 0 0 1 -1.44-3.69c0-3.56 2.48-5.94 6.75-5.94a10.1 10.1 0 0 1 7.47 2.75l2.2-2.2a12.86 12.86 0 0 0 -9.54-3.51c-6.34 0-10.26 3.6-10.26 9a7.57 7.57 0 0 0 2.43 6 11.65 11.65 0 0 0  5.9 2.43l3.73.58c2.34.36 3.15.63 4.18 1.53a5.16 5.16 0 0 1 1.53 4c0 3.73-2.88 5.94-7.56 5.94a11 11 0 0 1 -8.73-3.51l-2.34 2.34c3 3 6.16 4.23 11 4.23 6.66 0 11.07-3.46 11.07-9.09m-31.51-1.74v-21.46h-3.42v21.19c0 4.86-3.11 8.06-7.79 8.06s-7.74-3.2-7.74-8.06v-21.19h-3.42v21.46c0 6.39 4.68 10.85 11.16 10.85s11.2-4.45 11.2-10.84m-31.27-18.41v-3.06h-22v3.06h9.36v29h3.42v-29h9.27zm-31.32-3.06h-3.42v32h3.42zm-12.78 32v-3.06h-16.38v-29h-3.42v32h19.8zm-29.16 0v-3.06h-16.38v-29h-3.42v32h19.8zm-35.55-10.22h-12l6-16.92zm7.2 10.22l-11.74-32h-2.88l-11.79 32h3.65l2.57-7.25h14l2.57 7.25h3.59zm-35 0v-32h-3.42v14.36h-15.17v-14.36h-3.44v32h3.42v-14.54h15.21v14.63h3.42zm-32.58-8.82a8 8 0 0 0 -2.7-6.34c-1.35-1.17-2.83-1.8-5.85-2.25l-3.51-.54a9.22 9.22 0 0 1 -4.32-1.75 4.63 4.63 0 0 1 -1.44-3.69c0-3.56 2.48-5.94 6.75-5.94a10.1 10.1 0 0 1 7.51 2.79l2.2-2.2a12.86 12.86 0 0 0 -9.54-3.51c-6.34 0-10.26 3.6-10.26 9a7.57 7.57 0 0 0 2.43 6 11.65 11.65 0 0 0  5.89 2.43l3.73.58c2.34.36 3.15.63 4.18 1.53a5.16 5.16 0 0 1 1.53 4c0 3.73-2.88 5.94-7.56 5.94a11 11 0 0 1 -8.73-3.51l-2.34 2.34c3 3 6.16 4.23 11 4.23 6.66 0 11.07-3.46 11.07-9.09m-31.49-1.74v-21.46h-3.42v21.19c0 4.86-3.1 8.06-7.78 8.06s-7.74-3.2-7.74-8.06v-21.19h-3.42v21.46c0 6.39 4.68 10.85 11.16 10.85s11.2-4.45 11.2-10.85m-31.28-18.4v-3.06h-22v3.06h9.28v29h3.42v-29h9.27zm-29.16 29v-3.06h-16.47v-11.54h14v-3.1h-14v-11.3h16.47v-3.06h-19.89v32h19.89zm-33.21-22.65c0 4.23-2.79 6.39-6.8 6.39h-8.19v-12.74h8.19c4 0 6.8 2.12 6.8 6.34m3.42 0c0-5.76-4-9.4-9.9-9.4h-11.93v32h3.42v-13.14h8.5c5.85 0 9.9-3.69 9.9-9.45m-36.67 6.62c0 6.7-.23 8.86-2.25 10.94a7.82 7.82 0 0 1 -11.07 0c-2-2.07-2.25-4.23-2.25-10.94s.23-8.87 2.25-10.94a7.82 7.82 0 0 1 11.07 0c2 2.07 2.25 4.23 2.25 10.94m3.42 0c0-6.8 0-9.95-3-13a11.74 11.74 0 0 0 -16.38 0c-3 3-3 6.17-3 13s0 9.94 3 13a11.74 11.74 0 0 0 16.38 0c3-3 3-6.16 3-13" fill="#1d1d1b" transform="translate(-2.77 -4.1)"/><path d="m77.44 78.11c20.19-40.66 50.56-76.21 30.42-73.9a100.4 100.4 0 0 0 -32.91 10.14 116.29 116.29 0 0 1  14.36-5.87s-41.88 17.23-57.52 66.42a127.87 127.87 0 0 1 20.72-16.18c34.74-22-.61 22-8.37 77.66 7-9 15.81-23 25.84-38.3a110.24 110.24 0 0 1 7.45-20m109.57-5.61c-8.1-2.32-16.52 2.4-25 11.45-3 7.3-6.08 15.53-9.3 24.87-13.52 39.26-30.36 112-55 103a30.51 30.51 0 0 1 -6.12-3.05c-3.68 6.11-7.11 10.92-10.21 13.87a32.86 32.86 0 0 1 -9.24 6.39c46.68 45.94 132.65 44 127.76-13.09-6-69.91-5.39-98.11-4.85-140.18a30.39 30.39 0 0 0 -8-3.22m78.77 59a137.6 137.6 0 0 0 -3.42-29.26c-8.12-35.61-39.42-77.59-57-74.84-3.7.58-10.19 1.79-19 12.2 3.17 3.95 6.41 8.3 9.68 12.91 6.45-64.24 45.69 15.84 56.06 84a12 12 0 0 0 5.61 2.62c6.87 1.43 8-6.29 8.1-7.6" fill="#5bca13" transform="translate(-2.77 -4.1)"/><path d="m168.72 22.19c-59.5-36.19-135.23 167.4-140.9 116.2-14.62-98.67 61.49-129.91 61.49-129.91-48.91 16.18-87.4 65.95-86.53 123.39.88 57.75 33.11 90.87 44.73 96.61 14.71 7.27 27.56.37 33.9-5.86 24.39-23.19 68.45-160.81 105.59-150.15 41.56 10 36.05 97.61 38.06 114.41 4 33.48 13.37 29.49 26.42 4.89 8.75-16.49 14.44-35.5 14.31-60.55 0 0-.62 9.37-8.12 7.81-6.73-1.4-9.25-5.25-26.19-31.76-17.73-27.74-44.85-74.18-62.76-85.08" fill="#0041dc" transform="translate(-2.77 -4.1)"/></g></svg>